<svg width="19" height="19" viewBox="0 0 19 19" fill="none" xmlns="http://www.w3.org/2000/svg">
<g clip-path="url(#clip0_102_39)">
<path d="M16.625 14.25V15.0417C16.625 15.9125 15.9125 16.625 15.0417 16.625H3.95833C3.07958 16.625 2.375 15.9125 2.375 15.0417V3.95833C2.375 3.0875 3.07958 2.375 3.95833 2.375H15.0417C15.9125 2.375 16.625 3.0875 16.625 3.95833V4.75H9.5C8.62125 4.75 7.91667 5.4625 7.91667 6.33333V12.6667C7.91667 13.5375 8.62125 14.25 9.5 14.25H16.625ZM9.5 12.6667H17.4167V6.33333H9.5V12.6667ZM12.6667 10.6875C12.0096 10.6875 11.4792 10.1571 11.4792 9.5C11.4792 8.84292 12.0096 8.3125 12.6667 8.3125C13.3237 8.3125 13.8542 8.84292 13.8542 9.5C13.8542 10.1571 13.3237 10.6875 12.6667 10.6875Z" fill="white"/>
</g>
<defs>
<clipPath id="clip0_102_39">
<rect width="19" height="19" fill="white"/>
</clipPath>
</defs>
</svg>
