<svg width="19" height="19" viewBox="0 0 19 19" fill="none" xmlns="http://www.w3.org/2000/svg">
<g clip-path="url(#clip0_102_29)">
<path d="M9.50001 1.58331C6.43626 1.58331 3.95834 4.06123 3.95834 7.12498C3.95834 8.50248 4.35418 9.7929 5.07459 10.9566C5.82668 12.1758 6.81626 13.2208 7.57626 14.44C7.94834 15.0337 8.21751 15.5879 8.50251 16.2291C8.70834 16.6646 8.87459 17.4166 9.50001 17.4166C10.1254 17.4166 10.2917 16.6646 10.4896 16.2291C10.7825 15.5879 11.0438 15.0337 11.4158 14.44C12.1758 13.2287 13.1654 12.1837 13.9175 10.9566C14.6458 9.7929 15.0417 8.50248 15.0417 7.12498C15.0417 4.06123 12.5638 1.58331 9.50001 1.58331ZM9.50001 9.30206C8.40751 9.30206 7.52084 8.4154 7.52084 7.3229C7.52084 6.2304 8.40751 5.34373 9.50001 5.34373C10.5925 5.34373 11.4792 6.2304 11.4792 7.3229C11.4792 8.4154 10.5925 9.30206 9.50001 9.30206Z" fill="white"/>
</g>
<defs>
<clipPath id="clip0_102_29">
<rect width="19" height="19" fill="white"/>
</clipPath>
</defs>
</svg>
